<?xml version="1.0" encoding="utf-8"?>
<!-- Generator: Adobe Illustrator 16.0.0, SVG Export Plug-In . SVG Version: 6.00 Build 0)  -->
<!DOCTYPE svg PUBLIC "-//W3C//DTD SVG 1.1//EN" "http://www.w3.org/Graphics/SVG/1.1/DTD/svg11.dtd" [
	<!ENTITY ns_flows "http://ns.adobe.com/Flows/1.0/">
	<!ENTITY ns_extend "http://ns.adobe.com/Extensibility/1.0/">
	<!ENTITY ns_ai "http://ns.adobe.com/AdobeIllustrator/10.0/">
	<!ENTITY ns_graphs "http://ns.adobe.com/Graphs/1.0/">
]>
<svg version="1.1" id="Layer_1" xmlns:x="&ns_extend;" xmlns:i="&ns_ai;" xmlns:graph="&ns_graphs;"
	 xmlns="http://www.w3.org/2000/svg" xmlns:xlink="http://www.w3.org/1999/xlink" xmlns:a="http://ns.adobe.com/AdobeSVGViewerExtensions/3.0/"
	 x="0px" y="0px" width="24px" height="24px" viewBox="0 0 800 800" enable-background="new 0 0 800 800" xml:space="preserve">
<path fill="#FFFFFF" d="M596.595,156.719C586.425,68.594,502.52,0,400.454,0C298.57,0,214.665,67.969,203.042,155.625l52.849,3.594
	c9.444-63.281,70.102-112.188,144.2-112.188s135.482,49.688,143.292,113.75L596.595,156.719L596.595,156.719z M767.855,146.563
	c-58.115,0-116.05-2.656-173.983,1.719l-52.85,4.063c-47.037,3.594-98.615,13.906-140.931,32.656
	c-45.04-20.156-91.169-30.938-141.476-34.375l-52.849-3.594c-58.116-4.063-115.868-0.625-173.984-0.625H0V800h534.665
	C680.681,800,800,694.219,800,564.844V146.563H767.855z M71.737,421.875c0-75.938,69.557-137.656,155.278-137.656
	s155.278,61.563,155.278,137.656c0,75.938-69.558,137.656-155.278,137.656C141.113,559.531,71.737,497.813,71.737,421.875z
	 M399.728,635.625c-23.064-21.719-46.129-43.281-69.194-64.844c14.529-22.188,41.952-33.281,69.194-33.125
	c27.242,0,54.663,10.938,69.192,33.125c-23.065,21.563-46.13,43.125-69.194,64.844H399.728z M572.439,559.531
	c-85.721,0-155.278-61.563-155.278-137.656c0-75.938,69.558-137.656,155.278-137.656c85.723,0,155.28,61.563,155.28,137.656
	C727.719,497.813,658.161,559.531,572.439,559.531z M246.448,336.406c55.392,0,100.25,39.844,100.25,88.75
	c0,49.063-44.858,88.906-100.25,88.906s-100.25-39.844-100.25-88.906c0-16.406,5.085-31.719,13.803-44.844
	c7.083,15.625,24.518,26.719,44.858,26.719c26.697,0,48.309-19.063,48.309-42.813c0-10.625-4.359-20.313-11.623-27.813H246.448
	L246.448,336.406z M553.008,336.406c55.392,0,100.25,39.844,100.25,88.75c0,49.063-44.858,88.906-100.25,88.906
	s-100.25-39.844-100.25-88.906c0-16.406,4.904-31.719,13.621-44.844c7.265,15.625,24.518,26.719,44.858,26.719
	c26.697,0,48.309-19.063,48.309-42.813c0-10.625-4.361-20.313-11.625-27.813h5.085H553.008z"/>
</svg>
