<?xml version="1.0" encoding="utf-8"?>
<!-- Generator: Adobe Illustrator 16.0.0, SVG Export Plug-In . SVG Version: 6.00 Build 0)  -->
<!DOCTYPE svg PUBLIC "-//W3C//DTD SVG 1.1//EN" "http://www.w3.org/Graphics/SVG/1.1/DTD/svg11.dtd">
<svg version="1.1" id="Layer_1" xmlns="http://www.w3.org/2000/svg" xmlns:xlink="http://www.w3.org/1999/xlink" x="0px" y="0px"
	 width="24px" height="24px" viewBox="0 0 24 24" enable-background="new 0 0 24 24" xml:space="preserve">
<path fill="#FFFFFF" d="M17.898,4.702C17.593,2.058,15.076,0,12.014,0C8.957,0,6.44,2.039,6.091,4.669l1.585,0.107
	C7.96,2.878,9.78,1.411,12.003,1.411c2.223,0,4.064,1.49,4.298,3.412L17.898,4.702L17.898,4.702z M23.035,4.397
	c-1.743,0-3.48-0.08-5.219,0.051L16.23,4.57c-1.411,0.108-2.959,0.417-4.228,0.979c-1.352-0.604-2.735-0.928-4.245-1.031
	L6.173,4.411C4.43,4.289,2.697,4.392,0.954,4.392H0V24h16.04c4.38,0,7.96-3.174,7.96-7.055V4.397H23.035z M2.152,12.656
	c0-2.278,2.086-4.13,4.658-4.13s4.658,1.847,4.658,4.13c0,2.278-2.087,4.13-4.658,4.13C4.233,16.786,2.152,14.935,2.152,12.656z
	 M11.992,19.068c-0.692-0.651-1.384-1.298-2.076-1.945c0.436-0.665,1.259-0.998,2.076-0.993c0.817,0,1.64,0.328,2.076,0.993
	C13.375,17.771,12.684,18.417,11.992,19.068L11.992,19.068z M17.174,16.786c-2.572,0-4.659-1.847-4.659-4.13
	c0-2.278,2.087-4.13,4.659-4.13c2.57,0,4.658,1.847,4.658,4.13C21.832,14.935,19.744,16.786,17.174,16.786z M7.394,10.092
	c1.662,0,3.007,1.195,3.007,2.663c0,1.472-1.346,2.667-3.007,2.667c-1.662,0-3.008-1.195-3.008-2.667
	c0-0.492,0.153-0.952,0.414-1.346c0.213,0.469,0.736,0.802,1.346,0.802c0.801,0,1.449-0.572,1.449-1.284
	c0-0.319-0.131-0.609-0.349-0.834H7.394L7.394,10.092z M16.59,10.092c1.662,0,3.008,1.195,3.008,2.663
	c0,1.472-1.346,2.667-3.008,2.667c-1.661,0-3.008-1.195-3.008-2.667c0-0.492,0.148-0.952,0.409-1.346
	c0.218,0.469,0.735,0.802,1.346,0.802c0.802,0,1.45-0.572,1.45-1.284c0-0.319-0.131-0.609-0.35-0.834H16.59L16.59,10.092z"/>
</svg>
